<svg width="256" height="256" viewBox="0 0 256 256" fill="none" xmlns="http://www.w3.org/2000/svg">
<rect width="256" height="256" fill="url(#paint0_linear_208_5)"/>
<path d="M51.6455 200V112.448C53.3095 111.424 56.3815 110.016 60.8615 108.224C65.3415 106.432 70.6535 104.896 76.7975 103.616C82.9415 102.208 89.1495 101.504 95.4215 101.504C98.6215 101.504 101.246 101.76 103.294 102.272C105.342 102.784 107.07 103.36 108.478 104V120.128C105.534 119.744 102.462 119.488 99.2615 119.36C96.0615 119.104 92.8615 119.104 89.6615 119.36C86.4615 119.488 83.3255 119.744 80.2535 120.128C77.1815 120.512 74.3655 120.896 71.8055 121.28V200H51.6455ZM144.077 144.128L183.437 103.616H208.205L152.717 156.416L144.077 144.128ZM148.301 200H128.333V67.136H148.493L148.301 200ZM157.325 137.6L213.005 200H187.085L143.117 151.04L157.325 137.6Z" fill="url(#paint1_linear_208_5)"/>
<defs>
<linearGradient id="paint0_linear_208_5" x1="0" y1="0" x2="256" y2="256" gradientUnits="userSpaceOnUse">
<stop stop-color="#0891B2"/>
<stop offset="1" stop-color="#6D28D9"/>
</linearGradient>
<linearGradient id="paint1_linear_208_5" x1="45.5" y1="56" x2="209.5" y2="208" gradientUnits="userSpaceOnUse">
<stop stop-color="#ECFEFF"/>
<stop offset="1" stop-color="#F5F3FF"/>
</linearGradient>
</defs>
</svg>
